<?xml version="1.0" encoding="utf-8"?>
<!-- Generator: Adobe Illustrator 22.1.0, SVG Export Plug-In . SVG Version: 6.00 Build 0)  -->
<svg version="1.1" id="Artwork" xmlns="http://www.w3.org/2000/svg" xmlns:xlink="http://www.w3.org/1999/xlink" x="0px" y="0px"
	 viewBox="0 0 515.1 442" style="enable-background:new 0 0 515.1 442;" xml:space="preserve">
<style type="text/css">
	.st0{fill:#2FE5C8;}
	.st1{fill:#ABABAB;}
	.st2{clip-path:url(#SVGID_2_);}
	.st3{fill:#03324B;}
	.st4{fill:#E1E1E1;}
	.st5{fill:#FFFFFF;}
	.st6{fill:#45C14E;}
	.st7{fill:#C1F89A;}
</style>
<title>Grasshopper_Website_Illustrations</title>
<circle class="st0" cx="238.2" cy="226.7" r="211.8"/>
<path class="st1" d="M238.2,14.8c-117,0-211.8,94.8-211.8,211.8c0,20.6,3,41,8.9,60.8h405.9c5.9-19.7,8.9-40.2,8.9-60.8
	C450.1,109.7,355.2,14.8,238.2,14.8z"/>
<g>
	<defs>
		<circle id="SVGID_1_" cx="238.2" cy="226.7" r="211.8"/>
	</defs>
	<clipPath id="SVGID_2_">
		<use xlink:href="#SVGID_1_"  style="overflow:visible;"/>
	</clipPath>
	<g class="st2">
		<rect x="103.5" y="93.2" class="st0" width="134.7" height="197.1"/>
		<rect x="112.1" y="103.5" class="st3" width="115.8" height="186.8"/>
		<polygon class="st4" points="184.2,84.2 190.7,84.2 190.7,310.8 184.2,310.8 138.1,264.7 		"/>
		<polygon class="st5" points="184.2,310.8 112.1,290.7 112.1,103.1 184.2,84.2 		"/>
		<circle class="st0" cx="166.8" cy="200" r="7.1"/>
	</g>
</g>
<polygon class="st3" points="401,442 385.7,441.9 398.3,350.1 387.5,223.4 390.8,223.1 401.7,350.2 389.5,438.6 401,438.6 "/>
<polygon class="st3" points="373.3,441.9 358,441.9 358,438.5 369.5,438.6 358,350.1 358,349.9 368.3,223.1 371.6,223.3 361.3,350 
	"/>
<path class="st6" d="M505.4,338c-45.5-0.9-81.6-38.5-80.7-84c0.5-24.9,12.2-48.2,31.9-63.5L505.4,338z"/>
<path class="st3" d="M363.9,134.3L354.3,13c-0.4-5.7,3.8-10.7,9.5-11.1c5.7-0.4,10.7,3.8,11.1,9.5l-3.3,0.3
	c-0.3-3.9-3.7-6.8-7.5-6.5c-3.9,0.3-6.8,3.7-6.5,7.6l9.6,121.2L363.9,134.3z"/>
<path class="st3" d="M391.1,132.1l-9.6-121.2c-0.3-5.7,4.1-10.6,9.8-10.9c5.5-0.3,10.3,3.8,10.8,9.3l-3.3,0.3
	c-0.3-3.9-3.7-6.7-7.5-6.4c0,0,0,0,0,0c-3.9,0.3-6.7,3.7-6.4,7.5c0,0,0,0,0,0l9.6,121.2L391.1,132.1z"/>
<circle class="st7" cx="380" cy="220.9" r="84.9"/>
<path class="st6" d="M406.1,189.9l34.8-60.1c1-1.6,0.4-3.7-1.2-4.7c-0.6-0.4-1.3-0.5-2-0.5L322,133.8c-1.9,0.2-3.3,1.8-3.1,3.7
	c0.1,0.7,0.3,1.3,0.8,1.9l43.8,53.9c9,11.2,25.4,12.9,36.6,3.9C402.4,195.2,404.5,192.7,406.1,189.9z"/>
<circle class="st5" cx="327.4" cy="151.8" r="20.5"/>
<circle class="st3" cx="327.4" cy="151.8" r="4.4"/>
<circle class="st5" cx="435.4" cy="143.3" r="20.5"/>
<circle class="st3" cx="435.4" cy="143.3" r="4.4"/>
<path class="st3" d="M381.8,181.4c-14.6,0-26.7-11.3-27.9-25.8l3.3-0.3c1.1,13.6,13,23.7,26.5,22.7c13.6-1.1,23.7-13,22.7-26.5
	l3.3-0.3c1.2,15.4-10.3,28.9-25.7,30.1c0,0,0,0,0,0C383.3,181.4,382.6,181.4,381.8,181.4z"/>
<path class="st5" d="M412.8,220.8l23.7,3.8c3.3,0.5,5.5,3.6,5,6.9l-7.5,46.7c-0.5,3.3-3.6,5.5-6.9,5l-23.7-3.8
	c-3.3-0.5-5.5-3.6-5-6.9l7.5-46.7C406.5,222.5,409.6,220.3,412.8,220.8z"/>
<path class="st3" d="M422.1,239.1l-2.9-1.7c-0.1,0.9,0,1.8,0.5,2.6l-4-0.6c0,2.2,2.5,4.4,5.2,4.8l0,0l-1.5,1.1
	c-0.2,0.2-0.3,0.4-0.1,0.7c0.1,0.1,0.2,0.2,0.3,0.2c0.1,0,0.3,0,0.4-0.1l2.3-1.6l0,0l-0.3,1.6c0,0.3,0.1,0.5,0.4,0.5
	c0.2,0,0.5-0.1,0.5-0.4c0,0,0,0,0,0l0.3-1.6l0.9,0.1l-0.3,1.6c-0.1,0.2,0.1,0.5,0.3,0.6c0.2,0.1,0.5-0.1,0.6-0.3c0,0,0-0.1,0-0.1
	l0.3-1.6l0,0C425.3,242.5,424.1,240.2,422.1,239.1z"/>
<path class="st3" d="M426.8,241.1l-0.6-0.1c0.1-0.7,0.4-1.3,0.7-1.8c0.1-0.2,0.1-0.5-0.1-0.6c0,0-0.1-0.1-0.2-0.1
	c-0.1,0-0.3,0-0.4,0.1c-0.5,0.6-0.9,1.4-1,2.2c-0.3,1.7,0.5,3.4,2,4.2l0.2,0.1l0.4-2.6C427.9,241.9,427.5,241.3,426.8,241.1
	C426.8,241.1,426.8,241.1,426.8,241.1z"/>
<path class="st3" d="M330.4,259.2h-69c-9,0-16.3-7.3-16.3-16.3c0-9,7.3-16.3,16.3-16.3h34.2v3.3h-34.2c-7.2,0-13,5.8-13,13
	s5.8,13,13,13h66.8l2.7-6.9l3.1,1.2L330.4,259.2z"/>
<path class="st3" d="M336.2,218.7h-74.9c-9,0.2-16.5-6.9-16.7-15.9c-0.2-9,6.9-16.5,15.9-16.7c0.3,0,0.5,0,0.8,0h40.6v3.3h-40.6
	c-7.2,0-13,5.8-13,13s5.8,13,13,13h72.6l2.7-6.9l3.1,1.2L336.2,218.7z"/>
<path class="st3" d="M498.8,259.2h-69l-3.5-9.1l3.1-1.2l2.7,6.9h66.8c7.2,0,13-5.8,13-13s-5.8-13-13-13h-34.2v-3.3h34.2
	c9,0,16.3,7.3,16.3,16.3C515.1,251.9,507.8,259.2,498.8,259.2z"/>
<path class="st3" d="M498.8,218.7h-74.9l-3.5-9.1l3.1-1.2l2.7,6.9h72.6c7.2,0,13-5.8,13-13s-5.8-13-13-13h-40.6V186h40.6
	c9,0.2,16.1,7.7,15.9,16.7C514.5,211.4,507.5,218.4,498.8,218.7L498.8,218.7z"/>
<path class="st6" d="M76.6,165.6c-4.7-3.3-6.6-9.4-4.7-14.8c4.6-13.3-1.6-28-14.5-33.8c-3-1.3-4.6-4.6-3.7-7.8
	c2.2-7.2-1.9-14.8-9.1-17s-14.8,1.9-17,9.1c-0.6,1.9-0.7,4-0.4,6c0.2,1.5,0.7,3,1.4,4.4c1.9,3.5,1.3,7.9-1.5,10.7
	c-10.1,9.8-11,25.6-2.3,36.6c3.2,3.9,3.2,9.5,0,13.4c-13.6,16.3-11.4,40.5,4.8,54.1s40.5,11.4,54.1-4.8
	c13.6-16.3,11.4-40.5-4.8-54.1C78.2,166.8,77.4,166.2,76.6,165.6z"/>
<path class="st7" d="M55.4,283.7c0.5-8.1,0.8-16.1,1-24.2s0.3-16.1,0.2-24.2c-0.1-16.1-0.6-32.2-1.7-48.3s-2.7-32.1-5.3-48
	c-2.4-15.9-6.1-31.7-11.1-47l-1.4,0.4c4.6,15.4,7.9,31.1,9.9,47c2.1,15.8,3.4,31.8,4.1,47.8s0.8,32,0.5,48.1c-0.2,8-0.4,16-0.8,24
	c-0.4,8-0.9,16-1.6,23.9L55.4,283.7z"/>
<path class="st6" d="M84.6,259.3c-4.4,0-8.8,1.2-12.6,3.5c-10.6-13.6-30.2-16.1-43.9-5.5c-4.1,3.2-7.3,7.3-9.4,12.1
	c-1-0.2-2.1-0.3-3.1-0.3c-8.6,0-15.6,7-15.6,15.6l0,0c0,0.9,0.1,1.8,0.2,2.7h108c0.2-1.4,0.4-2.7,0.4-4.1
	C108.6,270,97.8,259.3,84.6,259.3z"/>
</svg>
